# xmcd
#
# Track frame offsets:
#	150
#	8851
#	18495
#	32876
#	43015
#	59951
#	74553
#	86044
#	97339
#	110684
#	124810
#	134108
#	145011
#	156033
#	170121
#	180303
#	189661
#	202123
#
# Disc length: 2770 seconds
#
# Revision: 0
# Processed by: cddbd v1.5.2PL0 Copyright (c) Steve Scherf et al.
# Submitted via: dBpowerAMP V4.0
#
DISCID=1c0ad012
DTITLE=Pete Seeger - Brothers and Sisters CD1
DYEAR=1900
DGENRE=Country
TTITLE0=If I Had A Hammer
TTITLE1=Where Have All My Flowers Gone
TTITLE2=Skip To My Lou
TTITLE3=Deep Blue Sea
TTITLE4=Down In The Valley
TTITLE5=Study War No More
TTITLE6=Oh, Mary Don't You Weep
TTITLE7=Last Night I Had The Strangest Dream
TTITLE8=Beans Bacon And Gravey
TTITLE9=River Of My People
TTITLE10=Listen Mister Bilbo
TTITLE11=Paddy Works On The Railroad
TTITLE12=Pegg And Awl
TTITLE13=The Big Rock Candy Mountain
TTITLE14=Hard Times In The Mill
TTITLE15=The Fox
TTITLE16=The Buffalo Skinners
TTITLE17=Wayfaring Strangers
EXTD=
EXTT0=
EXTT1=
EXTT2=
EXTT3=
EXTT4=
EXTT5=
EXTT6=
EXTT7=
EXTT8=
EXTT9=
EXTT10=
EXTT11=
EXTT12=
EXTT13=
EXTT14=
EXTT15=
EXTT16=
EXTT17=
PLAYORDER=
